# xmcd
#
# Track frame offsets:
#	150
#	2144
#	19628
#	34270
#	56625
#	67159
#	90272
#	104712
#	123738
#	129550
#	148592
#	162587
#	177352
#	178960
#	198556
#	221309
#	238804
#	244775
#	264601
#	276859
#	288530
#	314929
#	328925
#
# Disc length: 4573 seconds
#
# Revision: 0
# Processed by: cddbd v1.5.2PL0 Copyright (c) Steve Scherf et al.
# Submitted via: EasyCDDAExtractor 11.1.0.1
#
DISCID=7611db17
DTITLE=Fabulous Good Time Party Boys - Carbon Jackboot
DYEAR=2008
DGENRE=Blues
TTITLE0=Leave the pink alone
TTITLE1=Why did you do it?
TTITLE2=Who do you love?
TTITLE3=High Definition
TTITLE4=Sermon
TTITLE5=Shallow
TTITLE6=Labour ready
TTITLE7=I gotta woman
TTITLE8=Over the dam
TTITLE9=Happy birthday revolution
TTITLE10=Teenagers
TTITLE11=Maybe this time
TTITLE12=Keep on clucking
TTITLE13=Too much
TTITLE14=Girls, girls, girls
TTITLE15=Carbon jackboot
TTITLE16=24th Caprice
TTITLE17=Coz I luv You
TTITLE18=Gay bar
TTITLE19=You Can't
TTITLE20=Bleed or burn boogie part 2
TTITLE21=Give peace a chance
TTITLE22=Tomorrow belongs to me
EXTD=
EXTT0=
EXTT1=
EXTT2=
EXTT3=
EXTT4=
EXTT5=
EXTT6=
EXTT7=
EXTT8=
EXTT9=
EXTT10=
EXTT11=
EXTT12=
EXTT13=
EXTT14=
EXTT15=
EXTT16=
EXTT17=
EXTT18=
EXTT19=
EXTT20=
EXTT21=
EXTT22=
PLAYORDER=
